<?xml version="1.0" encoding="UTF-8" standalone="no"?>
<!-- Created with Inkscape (http://www.inkscape.org/) -->

<svg
   xmlns:dc="http://purl.org/dc/elements/1.1/"
   xmlns:cc="http://creativecommons.org/ns#"
   xmlns:rdf="http://www.w3.org/1999/02/22-rdf-syntax-ns#"
   xmlns:svg="http://www.w3.org/2000/svg"
   xmlns="http://www.w3.org/2000/svg"
   xmlns:sodipodi="http://sodipodi.sourceforge.net/DTD/sodipodi-0.dtd"
   xmlns:inkscape="http://www.inkscape.org/namespaces/inkscape"
   width="1024"
   height="1024"
   viewBox="0 0 270.93333 270.93334"
   version="1.1"
   id="svg3776"
   inkscape:version="0.92.4 (5da689c313, 2019-01-14)"
   sodipodi:docname="icon.svg">
  <defs
     id="defs3770" />
  <sodipodi:namedview
     id="base"
     pagecolor="#ffffff"
     bordercolor="#666666"
     borderopacity="1.0"
     inkscape:pageopacity="0.0"
     inkscape:pageshadow="2"
     inkscape:zoom="0.7"
     inkscape:cx="546.31204"
     inkscape:cy="613.64954"
     inkscape:document-units="px"
     inkscape:current-layer="layer1"
     showgrid="false"
     units="px"
     inkscape:window-width="1477"
     inkscape:window-height="1043"
     inkscape:window-x="2161"
     inkscape:window-y="182"
     inkscape:window-maximized="0" />
  <metadata
     id="metadata3773">
    <rdf:RDF>
      <cc:Work
         rdf:about="">
        <dc:format>image/svg+xml</dc:format>
        <dc:type
           rdf:resource="http://purl.org/dc/dcmitype/StillImage" />
        <dc:title></dc:title>
      </cc:Work>
    </rdf:RDF>
  </metadata>
  <g
     inkscape:label="Layer 1"
     inkscape:groupmode="layer"
     id="layer1"
     transform="translate(0,-26.06665)">
    <path
       inkscape:connector-curvature="0"
       id="path3791"
       d="m 112.12065,296.52065 -0.59174,-0.47947 -0.12534,-27.68004 C 111.2833,241.79685 111.2591,240.64571 110.80315,239.80308 110.54183,239.32016 97.090948,219.14753 80.912271,194.97502 64.733597,170.80248 51.4965,150.87194 51.4965,150.68491 c 0,-0.94696 -0.130871,-0.94224 26.055815,-0.938 l 25.454245,0.004 0.96572,0.56032 c 0.86298,0.50071 2.53704,3.18929 15.73471,25.27045 8.12294,13.59058 15.00237,24.90606 15.28762,25.14552 0.36952,0.31021 0.64422,0.36809 0.95558,0.20132 0.24033,-0.12872 7.19499,-11.42438 15.45481,-25.10144 10.18057,-16.85758 15.26004,-25.04321 15.76981,-25.4132 l 0.75197,-0.54578 25.53713,-0.0663 c 18.78682,-0.0487 25.62784,0.009 25.88035,0.21886 0.18878,0.15681 0.34322,0.45153 0.34322,0.65495 0,0.20341 -13.23614,20.14297 -29.41365,44.31012 -16.17753,24.16714 -29.62841,44.33512 -29.89088,44.81772 -0.45875,0.84353 -0.48205,1.94786 -0.60253,28.5575 l -0.12532,27.68004 -0.59175,0.47947 c -0.57295,0.46429 -1.3189,0.47952 -23.47135,0.47952 -22.15244,0 -22.8984,-0.0153 -23.47135,-0.4795 z M 55.424692,236.10283 c -0.304865,-0.51256 -0.757626,-6.125 -0.753845,-9.3447 0.0049,-3.96202 0.272421,-5.86892 1.239666,-8.82849 1.575161,-4.81967 5.266144,-8.20369 10.500093,-9.62682 0.836109,-0.22734 2.969601,-0.46787 4.804541,-0.54168 3.247467,-0.13061 3.310454,-0.12289 3.912269,0.47942 1.266205,1.26725 2.445028,5.37053 2.618603,9.11494 0.208801,4.50427 -0.826341,7.45009 -3.687672,10.49438 -3.321322,3.53369 -7.33963,5.57593 -14.905008,7.57525 -3.599994,0.95137 -3.569192,0.94577 -3.728647,0.6777 z m 156.316828,-0.66796 c -7.60705,-2.05484 -11.56835,-4.07592 -14.86653,-7.58499 -2.86133,-3.04429 -3.89647,-5.99011 -3.68767,-10.49438 0.17357,-3.74441 1.3524,-7.84769 2.6186,-9.11494 0.60182,-0.60231 0.66481,-0.61003 3.91226,-0.47942 1.83495,0.0738 3.96845,0.31434 4.80456,0.54168 6.3961,1.73913 10.08128,5.98783 11.43806,13.18716 0.67426,3.57776 0.0862,14.60428 -0.78513,14.72072 -0.2068,0.0276 -1.75216,-0.32149 -3.43415,-0.77583 z M 37.96101,210.17964 c -4.158147,-0.35616 -8.675064,-1.85292 -14.036802,-4.65137 -4.153949,-2.16806 -13.20061,-8.21999 -13.454367,-9.00055 -0.102336,-0.31478 4.642035,-6.24445 7.461787,-9.32597 5.631995,-6.15484 11.021721,-10.03476 16.520185,-11.89245 3.097526,-1.04653 7.560628,-1.30213 10.665371,-0.61083 5.161599,1.1493 10.822972,4.791 15.288411,9.83434 2.934551,3.31433 3.285656,4.11401 2.735106,6.22946 -0.811886,3.11966 -4.457559,9.28728 -7.366659,12.46269 -3.575032,3.9023 -8.408006,6.48514 -12.845579,6.86494 -0.870967,0.0746 -1.865566,0.16628 -2.210221,0.20387 -0.344654,0.0376 -1.585407,-0.0138 -2.757232,-0.11413 z m 190.60748,-0.0183 c -7.80518,-0.65895 -14.38818,-6.00117 -19.18595,-15.56974 -1.47476,-2.94121 -2.03746,-4.88007 -1.72886,-5.95697 0.65728,-2.29371 5.79773,-7.55409 10.24881,-10.48795 4.3857,-2.89075 8.0633,-3.95249 13.03327,-3.76275 2.70298,0.10319 3.51183,0.23816 5.54577,0.92533 5.49846,1.85769 10.88819,5.73761 16.52018,11.89245 2.81976,3.08152 7.56411,9.01118 7.46178,9.32597 -0.28774,0.88505 -9.80975,7.14851 -14.32652,9.42377 -6.86859,3.45997 -11.97037,4.6825 -17.56848,4.20989 z m -95.90226,-38.55236 c -2.36495,-1.54917 -5.42734,-4.4264 -6.85118,-6.43692 -4.97692,-7.02765 -4.45954,-14.96352 1.57013,-24.08408 2.24297,-3.39272 7.43242,-9.65639 8.00135,-9.65763 0.37624,-7.1e-4 3.84668,3.93823 6.12474,6.95174 4.71615,6.23875 6.82391,11.46469 6.80803,16.87974 -0.0123,4.20104 -1.38709,7.68336 -4.47461,11.33415 -2.52648,2.9874 -6.50683,5.96894 -8.22158,6.1585 -0.91245,0.10088 -1.25939,-0.0335 -2.95688,-1.1455 z M 20.935164,169.28831 c -3.106577,-0.61 -7.143174,-2.56988 -10.67178,-5.18145 -1.2407529,-0.91831 -4.0575985,-3.46472 -6.2596488,-5.6587 L 1.01375e-6,154.45909 0.71726833,153.91971 c 5.32782497,-4.00655 10.38042767,-7.07056 14.06691367,-8.53045 3.441141,-1.36274 5.363778,-1.75664 8.638708,-1.76989 4.3677,-0.0176 7.418643,1.07195 10.903595,3.8941 2.531301,2.04987 5.235016,5.53762 6.667149,8.60055 0.918332,1.96405 0.832238,2.45415 -0.803972,4.57674 -3.156107,4.09428 -8.089236,7.49541 -12.319485,8.49365 -1.696677,0.40037 -5.160832,0.45227 -6.935013,0.1039 z m 222.015446,-0.0991 c -4.21006,-1.06991 -9.11036,-4.48152 -12.20693,-8.49856 -1.63621,-2.12259 -1.72231,-2.61269 -0.80397,-4.57674 1.43214,-3.06293 4.13585,-6.55068 6.66714,-8.60055 3.48495,-2.82215 6.53589,-3.91175 10.9036,-3.8941 3.27493,0.0132 5.19755,0.40715 8.63869,1.76989 3.6865,1.45989 8.7391,4.5239 14.06694,8.53045 l 0.71725,0.53938 -4.00372,3.98907 c -2.20208,2.19398 -5.0189,4.74039 -6.25966,5.6587 -2.66711,1.97396 -6.32674,3.93608 -8.77301,4.70367 -2.27549,0.71402 -6.8629,0.90824 -8.94633,0.37879 z M 95.010468,139.06161 c -6.327703,-0.9846 -10.702558,-3.08646 -14.243541,-6.84319 -3.005071,-3.18818 -4.902641,-7.26043 -5.873438,-12.60457 -0.518106,-2.85214 -0.58881,-10.88925 -0.127787,-14.52492 0.588619,-4.64185 1.608088,-10.415088 1.893029,-10.720198 0.522342,-0.559316 11.269351,2.190338 16.433727,4.204612 16.613242,6.479726 22.155262,17.304876 16.925692,33.060676 -1.1317,3.40963 -2.53075,6.24357 -3.39646,6.87997 -0.35532,0.26122 -1.0885,0.57764 -1.62927,0.70316 -1.45014,0.33661 -7.41656,0.24363 -9.981952,-0.15554 z m 70.816492,0.16074 c -0.46557,-0.11904 -1.14234,-0.43396 -1.50393,-0.69985 -0.8763,-0.64437 -2.27117,-3.46395 -3.40784,-6.88848 -4.71684,-14.21106 -0.60731,-24.51494 12.38481,-31.05265 4.36902,-2.198512 9.15426,-3.803519 16.51006,-5.537579 3.29035,-0.775673 4.23692,-0.918799 4.46455,-0.675059 0.28494,0.30511 1.3044,6.078348 1.89302,10.720198 0.46235,3.64609 0.39035,11.67247 -0.13044,14.54031 -1.04215,5.73884 -2.87135,9.49224 -6.30324,12.93385 -3.31118,3.32056 -6.58723,5.02697 -11.79796,6.14528 -2.72998,0.58588 -10.5323,0.91707 -12.10903,0.51398 z M 36.899074,136.94047 c -4.099855,-0.69092 -8.210516,-3.00826 -11.618071,-6.5496 -3.278828,-3.40753 -5.785952,-7.37956 -8.23761,-13.05084 -1.453094,-3.36136 -4.398764,-11.75474 -4.398764,-12.53383 0,-0.6122 0.370026,-0.74908 5.670887,-2.09792 7.67717,-1.95349 9.934941,-2.26041 16.512279,-2.24468 5.102014,0.0123 5.988329,0.0758 7.705745,0.55274 4.233134,1.17563 6.866487,2.57269 9.512451,5.04659 2.077588,1.94248 3.126983,3.34133 4.462641,5.94869 2.120759,4.13996 3.633167,10.83371 3.470017,15.35794 l -0.08514,2.36082 -1.239801,1.12311 c -1.418697,1.28515 -5.504,3.41635 -8.740168,4.55952 -4.45147,1.57248 -9.341655,2.14642 -13.014477,1.52746 z m 188.640256,-0.24211 c -4.78479,-1.04134 -10.96374,-3.76502 -13.2597,-5.84487 l -1.23981,-1.12311 -0.0852,-2.36082 c -0.16315,-4.52423 1.34926,-11.21798 3.47002,-15.35794 1.33566,-2.60736 2.38505,-4.00621 4.46263,-5.94869 2.64597,-2.4739 5.27932,-3.87096 9.51245,-5.04659 1.71743,-0.47697 2.60374,-0.54054 7.70574,-0.55274 6.57735,-0.0157 8.83512,0.29119 16.51229,2.24468 5.30087,1.34884 5.67088,1.48572 5.67088,2.09792 0,0.77909 -2.94566,9.17247 -4.39875,12.53383 -4.57066,10.57303 -10.31676,16.74466 -17.78442,19.10136 -2.58096,0.81451 -7.45926,0.93316 -10.5662,0.25697 z M 133.5235,124.04037 c -2.57363,-1.4727 -6.34091,-4.96202 -8.00211,-7.4117 -4.98862,-7.3564 -3.89757,-15.98676 3.24488,-25.667094 1.65498,-2.243016 4.99497,-6.200999 6.07252,-7.196122 l 0.67912,-0.627164 1.24095,1.379754 c 9.66906,10.750587 13.03069,18.853916 11.07449,26.695336 -1.08672,4.35609 -5.01054,9.27317 -9.96163,12.48328 -1.7665,1.14534 -2.80401,1.22734 -4.34822,0.34371 z M 57.966961,96.289104 c -2.551144,-0.374543 -4.546929,-0.992868 -6.949575,-2.153089 -5.397122,-2.606239 -8.714497,-7.779596 -9.786891,-15.262418 -0.559574,-3.904521 -0.01286,-16.012694 0.758434,-16.796582 0.295131,-0.299955 5.012544,0.821797 9.061631,2.154768 9.380991,3.088241 14.86049,7.495229 17.099629,13.752712 0.72838,2.035527 0.766585,2.332851 0.75899,5.906392 -0.0071,3.304927 -0.0914,4.068326 -0.69306,6.271606 -0.376784,1.379756 -1.049956,3.24242 -1.495945,4.139268 -0.668234,1.343765 -0.965212,1.683285 -1.688184,1.930034 -0.994131,0.3393 -4.927032,0.3712 -7.065029,0.05732 z m 147.934389,-0.03897 c -0.71503,-0.258959 -1.02729,-0.619337 -1.68819,-1.948347 -0.44599,-0.896841 -1.11915,-2.759505 -1.49594,-4.139259 -0.60166,-2.203287 -0.68603,-2.96668 -0.69306,-6.271614 -0.008,-3.573542 0.0307,-3.870858 0.75899,-5.906393 2.23914,-6.257476 7.71864,-10.66447 17.09962,-13.752705 4.0491,-1.332971 8.76651,-2.454721 9.06164,-2.154768 0.42243,0.429335 1.01953,6.917707 1.01475,11.026701 -0.007,6.298536 -0.57954,9.310172 -2.54552,13.396952 -1.05495,2.192954 -1.56557,2.920151 -3.19705,4.552983 -3.44139,3.444221 -7.97163,5.16789 -14.1794,5.394985 -2.27264,0.08313 -3.52397,0.02311 -4.13584,-0.198535 z M 98.745397,88.501842 C 90.814119,86.678467 84.63598,82.314225 81.919234,76.615819 80.443303,73.52005 80.00577,71.347804 79.999127,67.082976 c -0.0064,-4.206777 0.335068,-6.533691 1.679139,-11.437247 0.849923,-3.100776 3.268363,-9.938945 3.662818,-10.356673 0.233627,-0.24741 5.818442,2.60584 9.042333,4.619687 4.777643,2.984407 9.563123,7.198207 11.669523,10.275464 4.35303,6.359356 4.77009,13.502933 1.22556,20.991706 -1.38333,2.922633 -3.65024,6.394102 -4.63261,7.094192 -0.77948,0.555491 -2.1405,0.636352 -3.900493,0.231737 z M 168.01241,87.99947 c -1.19311,-1.129274 -3.01783,-3.993013 -4.38566,-6.88292 -3.51488,-7.426132 -3.08565,-14.593032 1.25364,-20.932343 2.10642,-3.077257 6.89189,-7.291057 11.66953,-10.275464 3.22389,-2.013847 8.80871,-4.867097 9.04233,-4.619687 0.39445,0.417728 2.8129,7.255897 3.66282,10.356673 1.34407,4.903556 1.68569,7.23047 1.67914,11.437247 -0.005,3.046352 -0.10842,4.145154 -0.54439,5.76988 -1.57655,5.875461 -5.19167,10.187883 -10.89594,12.997655 -2.893,1.425011 -6.81909,2.679427 -8.94607,2.858342 -1.59881,0.134486 -1.66272,0.116608 -2.5354,-0.709383 z M 133.33609,74.523081 c -3.38607,-1.604375 -8.80815,-6.361762 -11.088,-9.728738 -5.88931,-8.697506 -4.21637,-18.713344 5.06493,-30.323733 2.87039,-3.590693 7.48927,-8.403959 8.06458,-8.403959 1.08286,0 8.12679,8.006775 11.29416,12.83796 7.41313,11.307207 7.06927,21.130327 -1.02795,29.366085 -3.32579,3.382707 -8.54185,6.965651 -10.13993,6.965174 -0.36512,-1.13e-4 -1.34062,-0.320867 -2.16779,-0.712789 z"
       style="fill:#85c2e8;stroke-width:0.25076073" />
  </g>
</svg>
